# xmcd
#
# Track frame offsets:
#	150
#	21343
#	49115
#	68084
#	87338
#	107683
#	137559
#	155416
#	171119
#	192059
#	214071
#	232365
#	246709
#	265912
#	292371
#	310165
#	333731
#
# Disc length: 4767 seconds
#
# Revision: 1
# Processed by: cddbd v1.5PL3 Copyright (c) Steve Scherf et al.
# Submitted via: CDex 1.50Beta5
#
DISCID=0a129d11
DTITLE=福山雅治 - 「福山エンヂニヤリング」サウンドトラック The Golden Oldies
DYEAR=2002
DGENRE=Pop -> Japanese Pop
TTITLE0=青い影・青春の影
TTITLE1=ファイト!
TTITLE2=飾りじゃないのよ涙は
TTITLE3=秋桜
TTITLE4=ルビーの指環
TTITLE5=雨のバス
TTITLE6=ラスト・ダンスは私に
TTITLE7=お嫁においで
TTITLE8=プカプカ
TTITLE9=ケンとメリー・愛と風のように・
TTITLE10=勝手にしやがれ
TTITLE11=ロックンロールの真最中
TTITLE12=浅草キッド
TTITLE13=おでこにキッス
TTITLE14=タイムマシンにおねがい
TTITLE15=そして僕は途方に暮れる
TTITLE16=とんぼ
EXTD=UUCH-1055 2002/06/26発売
EXTT0=
EXTT1=
EXTT2=
EXTT3=
EXTT4=
EXTT5=
EXTT6=
EXTT7=
EXTT8=
EXTT9=
EXTT10=
EXTT11=
EXTT12=
EXTT13=
EXTT14=
EXTT15=
EXTT16=
PLAYORDER=
